<svg data-v-423bf9ae="" xmlns="http://www.w3.org/2000/svg" viewBox="0 0 208.68673949033868 163" class="iconAbove"><!----><!----><!----><g data-v-423bf9ae="" id="be91e1b7-ae95-4697-9390-5e830e816320" fill="white" transform="matrix(4.103967666625977,0,0,4.103967666625977,-6.443234443664551,91.9603271484375)"><path d="M2.57 3.63L2.57 13.64L1.57 13.64L1.57 3.63L2.57 3.63ZM4.99 13.30L5.22 12.43L5.34 12.35L5.34 12.35Q5.60 12.50 5.88 12.60L5.88 12.60L5.88 12.60Q6.16 12.69 6.43 12.76L6.43 12.76L6.43 12.76Q6.71 12.82 6.96 12.85L6.96 12.85L6.96 12.85Q7.22 12.89 7.43 12.89L7.43 12.89L7.43 12.89Q7.79 12.89 8.09 12.80L8.09 12.80L8.09 12.80Q8.39 12.72 8.61 12.57L8.61 12.57L8.61 12.57Q8.83 12.41 8.95 12.20L8.95 12.20L8.95 12.20Q9.07 11.98 9.07 11.71L9.07 11.71L9.07 11.71Q9.07 11.39 8.90 11.18L8.90 11.18L8.90 11.18Q8.74 10.96 8.46 10.82L8.46 10.82L8.46 10.82Q8.19 10.67 7.84 10.56L7.84 10.56L7.84 10.56Q7.49 10.46 7.12 10.35L7.12 10.35L7.12 10.35Q6.75 10.24 6.40 10.10L6.40 10.10L6.40 10.10Q6.05 9.97 5.78 9.76L5.78 9.76L5.78 9.76Q5.50 9.56 5.34 9.26L5.34 9.26L5.34 9.26Q5.17 8.96 5.17 8.52L5.17 8.52L5.17 8.52Q5.17 8.06 5.37 7.65L5.37 7.65L5.37 7.65Q5.56 7.24 5.92 6.93L5.92 6.93L5.92 6.93Q6.28 6.62 6.77 6.44L6.77 6.44L6.77 6.44Q7.27 6.26 7.86 6.26L7.86 6.26L7.86 6.26Q8.03 6.26 8.25 6.28L8.25 6.28L8.25 6.28Q8.48 6.30 8.72 6.33L8.72 6.33L8.72 6.33Q8.97 6.36 9.23 6.42L9.23 6.42L9.23 6.42Q9.50 6.47 9.74 6.56L9.74 6.56L9.50 7.45L9.37 7.53L9.37 7.53Q9.19 7.45 8.98 7.38L8.98 7.38L8.98 7.38Q8.76 7.31 8.53 7.26L8.53 7.26L8.53 7.26Q8.31 7.21 8.08 7.18L8.08 7.18L8.08 7.18Q7.85 7.16 7.66 7.16L7.66 7.16L7.66 7.16Q7.31 7.16 7.02 7.24L7.02 7.24L7.02 7.24Q6.73 7.33 6.52 7.48L6.52 7.48L6.52 7.48Q6.32 7.64 6.20 7.85L6.20 7.85L6.20 7.85Q6.08 8.06 6.08 8.31L6.08 8.31L6.08 8.31Q6.08 8.62 6.24 8.83L6.24 8.83L6.24 8.83Q6.41 9.04 6.69 9.18L6.69 9.18L6.69 9.18Q6.97 9.33 7.32 9.44L7.32 9.44L7.32 9.44Q7.67 9.55 8.04 9.66L8.04 9.66L8.04 9.66Q8.41 9.78 8.76 9.92L8.76 9.92L8.76 9.92Q9.11 10.06 9.39 10.27L9.39 10.27L9.39 10.27Q9.67 10.49 9.83 10.79L9.83 10.79L9.83 10.79Q10.00 11.09 10.00 11.53L10.00 11.53L10.00 11.53Q10.00 12.04 9.77 12.46L9.77 12.46L9.77 12.46Q9.54 12.88 9.16 13.17L9.16 13.17L9.16 13.17Q8.77 13.46 8.26 13.62L8.26 13.62L8.26 13.62Q7.76 13.78 7.21 13.78L7.21 13.78L7.21 13.78Q6.73 13.78 6.14 13.66L6.14 13.66L6.14 13.66Q5.55 13.54 4.99 13.30L4.99 13.30ZM12.09 13.64L12.09 2.69L13.07 2.69L13.07 7.63L13.07 7.63Q13.30 7.40 13.59 7.16L13.59 7.16L13.59 7.16Q13.88 6.92 14.23 6.72L14.23 6.72L14.23 6.72Q14.57 6.51 14.96 6.39L14.96 6.39L14.96 6.39Q15.35 6.26 15.78 6.26L15.78 6.26L15.78 6.26Q16.27 6.26 16.68 6.44L16.68 6.44L16.68 6.44Q17.10 6.62 17.40 6.95L17.40 6.95L17.40 6.95Q17.70 7.27 17.87 7.74L17.87 7.74L17.87 7.74Q18.03 8.21 18.03 8.79L18.03 8.79L18.03 13.64L17.06 13.64L17.06 8.93L17.06 8.93Q17.06 8.50 16.94 8.18L16.94 8.18L16.94 8.18Q16.82 7.85 16.61 7.63L16.61 7.63L16.61 7.63Q16.41 7.41 16.12 7.30L16.12 7.30L16.12 7.30Q15.83 7.18 15.48 7.18L15.48 7.18L15.48 7.18Q14.86 7.18 14.27 7.52L14.27 7.52L14.27 7.52Q13.67 7.86 13.07 8.46L13.07 8.46L13.07 13.64L12.09 13.64ZM23.47 13.78L23.47 13.78L23.47 13.78Q22.68 13.78 22.06 13.48L22.06 13.48L22.06 13.48Q21.43 13.19 21.00 12.69L21.00 12.69L21.00 12.69Q20.56 12.19 20.33 11.53L20.33 11.53L20.33 11.53Q20.10 10.88 20.10 10.16L20.10 10.16L20.10 10.16Q20.10 9.34 20.38 8.63L20.38 8.63L20.38 8.63Q20.67 7.92 21.18 7.40L21.18 7.40L21.18 7.40Q21.68 6.87 22.37 6.57L22.37 6.57L22.37 6.57Q23.05 6.26 23.84 6.26L23.84 6.26L23.84 6.26Q24.64 6.26 25.27 6.56L25.27 6.56L25.27 6.56Q25.89 6.86 26.33 7.37L26.33 7.37L26.33 7.37Q26.76 7.88 26.98 8.53L26.98 8.53L26.98 8.53Q27.21 9.19 27.21 9.91L27.21 9.91L27.21 9.91Q27.21 10.72 26.92 11.43L26.92 11.43L26.92 11.43Q26.63 12.13 26.13 12.66L26.13 12.66L26.13 12.66Q25.63 13.18 24.94 13.48L24.94 13.48L24.94 13.48Q24.26 13.78 23.47 13.78ZM23.66 12.89L23.66 12.89L23.66 12.89Q24.23 12.89 24.70 12.65L24.70 12.65L24.70 12.65Q25.16 12.42 25.49 12.03L25.49 12.03L25.49 12.03Q25.82 11.64 26.00 11.13L26.00 11.13L26.00 11.13Q26.18 10.62 26.18 10.07L26.18 10.07L26.18 10.07Q26.18 9.53 26.01 9.01L26.01 9.01L26.01 9.01Q25.84 8.48 25.52 8.07L25.52 8.07L25.52 8.07Q25.19 7.66 24.72 7.41L24.72 7.41L24.72 7.41Q24.25 7.16 23.65 7.16L23.65 7.16L23.65 7.16Q23.08 7.16 22.62 7.39L22.62 7.39L22.62 7.39Q22.16 7.62 21.82 8.00L21.82 8.00L21.82 8.00Q21.49 8.39 21.30 8.91L21.30 8.91L21.30 8.91Q21.12 9.42 21.12 9.98L21.12 9.98L21.12 9.98Q21.12 10.51 21.29 11.03L21.29 11.03L21.29 11.03Q21.46 11.55 21.79 11.97L21.79 11.97L21.79 11.97Q22.11 12.38 22.59 12.63L22.59 12.63L22.59 12.63Q23.06 12.89 23.66 12.89ZM29.27 13.27L29.27 2.69L30.25 2.69L30.25 7.63L30.25 7.63Q30.58 7.32 30.89 7.07L30.89 7.07L30.89 7.07Q31.21 6.82 31.53 6.64L31.53 6.64L31.53 6.64Q31.86 6.46 32.21 6.36L32.21 6.36L32.21 6.36Q32.55 6.26 32.94 6.26L32.94 6.26L32.94 6.26Q33.63 6.26 34.17 6.56L34.17 6.56L34.17 6.56Q34.72 6.85 35.10 7.34L35.10 7.34L35.10 7.34Q35.49 7.83 35.69 8.47L35.69 8.47L35.69 8.47Q35.89 9.11 35.89 9.80L35.89 9.80L35.89 9.80Q35.89 10.63 35.59 11.36L35.59 11.36L35.59 11.36Q35.29 12.09 34.75 12.62L34.75 12.62L34.75 12.62Q34.21 13.16 33.44 13.47L33.44 13.47L33.44 13.47Q32.68 13.78 31.74 13.78L31.74 13.78L31.74 13.78Q31.12 13.78 30.49 13.64L30.49 13.64L30.49 13.64Q29.85 13.51 29.27 13.27L29.27 13.27ZM30.25 8.47L30.25 12.55L30.25 12.55Q30.69 12.72 31.15 12.80L31.15 12.80L31.15 12.80Q31.61 12.89 32.01 12.89L32.01 12.89L32.01 12.89Q32.68 12.89 33.21 12.65L33.21 12.65L33.21 12.65Q33.74 12.42 34.11 12.02L34.11 12.02L34.11 12.02Q34.48 11.63 34.67 11.10L34.67 11.10L34.67 11.10Q34.86 10.57 34.86 9.97L34.86 9.97L34.86 9.97Q34.86 9.47 34.73 8.98L34.73 8.98L34.73 8.98Q34.59 8.48 34.32 8.08L34.32 8.08L34.32 8.08Q34.04 7.68 33.63 7.43L33.63 7.43L33.63 7.43Q33.22 7.18 32.68 7.18L32.68 7.18L32.68 7.18Q32.44 7.18 32.16 7.25L32.16 7.25L32.16 7.25Q31.88 7.31 31.58 7.46L31.58 7.46L31.58 7.46Q31.27 7.61 30.94 7.85L30.94 7.85L30.94 7.85Q30.60 8.10 30.25 8.47L30.25 8.47ZM40.88 13.78L40.88 13.78L40.88 13.78Q40.09 13.78 39.46 13.48L39.46 13.48L39.46 13.48Q38.83 13.19 38.40 12.69L38.40 12.69L38.40 12.69Q37.97 12.19 37.73 11.53L37.73 11.53L37.73 11.53Q37.50 10.88 37.50 10.16L37.50 10.16L37.50 10.16Q37.50 9.34 37.79 8.63L37.79 8.63L37.79 8.63Q38.08 7.92 38.58 7.40L38.58 7.40L38.58 7.40Q39.09 6.87 39.77 6.57L39.77 6.57L39.77 6.57Q40.46 6.26 41.25 6.26L41.25 6.26L41.25 6.26Q42.05 6.26 42.67 6.56L42.67 6.56L42.67 6.56Q43.30 6.86 43.73 7.37L43.73 7.37L43.73 7.37Q44.16 7.88 44.39 8.53L44.39 8.53L44.39 8.53Q44.61 9.19 44.61 9.91L44.61 9.91L44.61 9.91Q44.61 10.72 44.32 11.43L44.32 11.43L44.32 11.43Q44.04 12.13 43.53 12.66L43.53 12.66L43.53 12.66Q43.03 13.18 42.35 13.48L42.35 13.48L42.35 13.48Q41.67 13.78 40.88 13.78ZM41.06 12.89L41.06 12.89L41.06 12.89Q41.64 12.89 42.10 12.65L42.10 12.65L42.10 12.65Q42.57 12.42 42.90 12.03L42.90 12.03L42.90 12.03Q43.22 11.64 43.40 11.13L43.40 11.13L43.40 11.13Q43.59 10.62 43.59 10.07L43.59 10.07L43.59 10.07Q43.59 9.53 43.42 9.01L43.42 9.01L43.42 9.01Q43.24 8.48 42.92 8.07L42.92 8.07L42.92 8.07Q42.59 7.66 42.12 7.41L42.12 7.41L42.12 7.41Q41.65 7.16 41.05 7.16L41.05 7.16L41.05 7.16Q40.48 7.16 40.02 7.39L40.02 7.39L40.02 7.39Q39.56 7.62 39.22 8.00L39.22 8.00L39.22 8.00Q38.89 8.39 38.71 8.91L38.71 8.91L38.71 8.91Q38.53 9.42 38.53 9.98L38.53 9.98L38.53 9.98Q38.53 10.51 38.70 11.03L38.70 11.03L38.70 11.03Q38.87 11.55 39.19 11.97L39.19 11.97L39.19 11.97Q39.52 12.38 39.99 12.63L39.99 12.63L39.99 12.63Q40.46 12.89 41.06 12.89ZM48.88 13.64L48.60 13.64L45.83 6.40L46.98 6.40L48.81 11.52L49.12 12.64L49.26 12.64L49.56 11.52L51.39 6.40L52.42 6.40L48.26 17.31L47.28 17.31L48.88 13.64Z"></path></g><!----><g data-v-423bf9ae="" id="f7040e54-9df8-4fa1-85d9-26b19cab80cd" transform="matrix(1.188903570175171,0,0,1.188903570175171,45.85482406616211,-14.28573226928711)" stroke="none" fill="white"><path d="M84.7 25.7c-.5-2.2-1.3-4.4-2.4-6.5 3.2 1.2 5.8 3.5 7.4 6.5h-5zm-12.5-6.5c-3.2 1.2-5.9 3.5-7.6 6.5h5c.6-2.3 1.5-4.5 2.6-6.5zm3.9-.9c-1.5 2.3-2.7 4.8-3.4 7.4h9c-.7-2.6-1.8-5.1-3.3-7.4-.4 0-.8-.1-1.3-.1-.3.1-.6.1-1 .1zM15.4 66.2V72h61.8V57c2.6 0 5.2-.4 7.7-1.2v15.8c0 1 .3 2 1 2.7l3.9 4.8c.3.4.5.8.5 1.3v2.2c0 2.9-2.3 5.2-5.2 5.2H7.5c-2.9 0-5.2-2.3-5.2-5.2v-2.2c0-.5.2-.9.5-1.3l4-4.9c.6-.8 1-1.7 1-2.7V32.6c0-4.2 3.4-7.7 7.7-7.7H54c-.8 2.5-1.2 5.1-1.2 7.7H15.4v33.6zM38 80.3c0 1.5 1.2 2.7 2.7 2.7H52c1.5 0 2.7-1.2 2.7-2.7v-.6H38v.6zm30.8-47.5c0-1.4.1-2.8.3-4.2h-5.7c-.4 1.3-.6 2.6-.6 4s.2 2.7.6 3.9H69c-.1-1.2-.2-2.5-.2-3.7zm-4.2 6.7c1.6 2.9 4.2 5.2 7.3 6.5-1.1-2.1-1.8-4.2-2.4-6.5h-4.9zm7.1-6.7c0 1.3.1 2.5.3 3.8h10.3c.2-1.4.3-2.7.3-4.1 0-1.3-.1-2.5-.3-3.8H72.1c-.3 1.3-.4 2.7-.4 4.1zm20-14.7c8 8 8 21 0 28.9-6.7 6.7-17 7.8-24.8 3.2-3.1 2.3-6.4 2.7-8.7 2.4-.8-.1-.9-1.2-.2-1.5 2.1-1 3.4-3.1 4.2-4.8l-.2-.2c-7.1-8-6.8-20.3.9-28 7.8-8 20.8-8 28.8 0zm-2.3 2.3c-3.3-3.3-7.6-5.1-12.2-5.1s-8.9 1.8-12.2 5.1c-3.2 3.3-5 7.6-5 12.2s1.8 8.9 5.1 12.2c3.3 3.3 7.6 5.1 12.2 5.1s8.9-1.8 12.2-5.1c3.3-3.3 5.1-7.6 5.1-12.2-.1-4.6-1.9-8.9-5.2-12.2zM75.9 46.9c.4 0 .9.1 1.3.1h1c1.5-2.3 2.7-4.8 3.4-7.4h-9.1c.8 2.5 1.9 5 3.4 7.3zm9.6-14.5c0 1.4-.1 2.8-.3 4.1H91c.4-1.3.6-2.6.6-3.9 0-1.4-.2-2.7-.6-4h-5.7c.1 1.3.2 2.5.2 3.8zm-3.4 13.7c3.3-1.2 6-3.6 7.7-6.6h-5.1c-.6 2.3-1.5 4.5-2.6 6.6z"></path></g><!----></svg>